<svg xmlns="http://www.w3.org/2000/svg" xmlns:xlink="http://www.w3.org/1999/xlink" width="250" zoomAndPan="magnify" viewBox="0 0 187.5 187.499992" height="250" preserveAspectRatio="xMidYMid meet" version="1.0"><defs><clipPath id="b7e945f82a"><path d="M 0 1.90625 L 187 1.90625 L 187 185.167969 L 0 185.167969 Z M 0 1.90625 " clip-rule="nonzero"/></clipPath></defs><g clip-path="url(#b7e945f82a)"><path fill="#ffffff" d="M 93.222656 1.90625 C 41.675781 1.90625 0.00390625 43.90625 0.00390625 95.863281 C 0.00390625 137.394531 26.703125 172.550781 63.742188 184.992188 C 68.375 185.925781 70.070312 182.96875 70.070312 180.484375 C 70.070312 178.304688 69.917969 170.839844 69.917969 163.058594 C 43.988281 168.660156 38.585938 151.859375 38.585938 151.859375 C 34.417969 140.972656 28.246094 138.171875 28.246094 138.171875 C 19.757812 132.417969 28.863281 132.417969 28.863281 132.417969 C 38.277344 133.039062 43.21875 142.0625 43.21875 142.0625 C 51.550781 156.371094 64.976562 152.328125 70.378906 149.839844 C 71.152344 143.773438 73.621094 139.570312 76.246094 137.238281 C 55.5625 135.0625 33.804688 126.972656 33.804688 90.882812 C 33.804688 80.617188 37.503906 72.21875 43.371094 65.683594 C 42.445312 63.351562 39.203125 53.707031 44.296875 40.796875 C 44.296875 40.796875 52.167969 38.304688 69.917969 50.441406 C 77.546875 48.375 85.316406 47.335938 93.222656 47.328125 C 101.09375 47.328125 109.117188 48.417969 116.527344 50.441406 C 134.273438 38.304688 142.144531 40.796875 142.144531 40.796875 C 147.242188 53.707031 143.996094 63.351562 143.070312 65.683594 C 149.09375 72.21875 152.640625 80.617188 152.640625 90.882812 C 152.640625 126.972656 130.878906 134.90625 110.042969 137.238281 C 113.441406 140.195312 116.371094 145.792969 116.371094 154.660156 C 116.371094 167.257812 116.21875 177.371094 116.21875 180.480469 C 116.21875 182.96875 117.917969 185.925781 122.546875 184.992188 C 159.585938 172.546875 186.285156 137.394531 186.285156 95.863281 C 186.4375 43.90625 144.617188 1.90625 93.222656 1.90625 Z M 93.222656 1.90625 " fill-opacity="1" fill-rule="evenodd"/></g></svg>