<svg xmlns="http://www.w3.org/2000/svg" xmlns:xlink="http://www.w3.org/1999/xlink" width="250" zoomAndPan="magnify" viewBox="0 0 187.5 187.499992" height="250" preserveAspectRatio="xMidYMid meet" version="1.0"><path fill="#4285f4" d="M 175.78125 95.449219 C 175.78125 89.371094 175.234375 83.527344 174.222656 77.917969 L 93.5 77.917969 L 93.5 111.070312 L 139.628906 111.070312 C 137.640625 121.785156 131.601562 130.863281 122.523438 136.941406 L 122.523438 158.445312 L 150.222656 158.445312 C 166.429688 143.523438 175.78125 121.550781 175.78125 95.449219 Z M 175.78125 95.449219 " fill-opacity="1" fill-rule="nonzero"/><path fill="#34a853" d="M 93.5 179.210938 C 116.640625 179.210938 136.042969 171.535156 150.222656 158.445312 L 122.523438 136.941406 C 114.851562 142.082031 105.03125 145.121094 93.5 145.121094 C 71.175781 145.121094 52.28125 130.042969 45.542969 109.785156 L 16.90625 109.785156 L 16.90625 131.992188 C 31.011719 160.003906 59.996094 179.210938 93.5 179.210938 Z M 93.5 179.210938 " fill-opacity="1" fill-rule="nonzero"/><path fill="#fbbc05" d="M 45.542969 109.785156 C 43.828125 104.644531 42.855469 99.148438 42.855469 93.5 C 42.855469 87.851562 43.828125 82.359375 45.542969 77.214844 L 45.542969 55.007812 L 16.90625 55.007812 C 13.910156 60.980469 11.636719 67.21875 10.097656 73.722656 C 8.558594 80.226562 7.789062 86.816406 7.792969 93.5 C 7.792969 107.332031 11.101562 120.421875 16.90625 131.992188 Z M 45.542969 109.785156 " fill-opacity="1" fill-rule="nonzero"/><path fill="#ea4335" d="M 93.5 41.878906 C 106.085938 41.878906 117.382812 46.203125 126.265625 54.699219 L 150.847656 30.113281 C 136.003906 16.285156 116.601562 7.792969 93.5 7.792969 C 59.996094 7.792969 31.011719 27 16.90625 55.007812 L 45.542969 77.214844 C 52.28125 56.957031 71.175781 41.878906 93.5 41.878906 Z M 93.5 41.878906 " fill-opacity="1" fill-rule="nonzero"/></svg>