<svg xmlns="http://www.w3.org/2000/svg" xmlns:xlink="http://www.w3.org/1999/xlink" width="250" zoomAndPan="magnify" viewBox="0 0 187.5 187.499992" height="250" preserveAspectRatio="xMidYMid meet" version="1.0"><path fill="#ff5c16" d="M 174.476562 176.03125 L 134.371094 164.128906 L 104.128906 182.152344 L 83.027344 182.140625 L 52.765625 164.128906 L 12.675781 176.03125 L 0.484375 135 L 12.675781 89.460938 L 0.484375 50.957031 L 12.675781 3.238281 L 75.316406 40.539062 L 111.839844 40.539062 L 174.476562 3.238281 L 186.671875 50.957031 L 174.476562 89.460938 L 186.671875 135 Z M 174.476562 176.03125 " fill-opacity="1" fill-rule="nonzero"/><path fill="#ff5c16" d="M 12.683594 3.238281 L 75.324219 40.570312 L 72.832031 66.1875 Z M 52.773438 135.015625 L 80.335938 155.941406 L 52.773438 164.125 Z M 78.125 100.414062 L 72.828125 66.199219 L 38.921875 89.464844 L 38.90625 89.453125 L 38.90625 89.472656 L 39.011719 113.421875 L 52.761719 100.414062 Z M 174.46875 3.238281 L 111.832031 40.570312 L 114.3125 66.1875 Z M 134.390625 135.015625 L 106.832031 155.941406 L 134.390625 164.125 Z M 148.242188 89.472656 L 148.25 89.472656 Z M 148.242188 89.472656 L 148.242188 89.453125 L 148.234375 89.464844 L 114.324219 66.199219 L 109.03125 100.414062 L 134.386719 100.414062 L 148.144531 113.421875 Z M 148.242188 89.472656 " fill-opacity="1" fill-rule="nonzero"/><path fill="#e34807" d="M 52.765625 164.125 L 12.675781 176.027344 L 0.484375 135.015625 L 52.765625 135.015625 Z M 78.121094 100.410156 L 85.777344 149.871094 L 75.164062 122.371094 L 38.996094 113.425781 L 52.753906 100.410156 Z M 134.390625 164.125 L 174.480469 176.027344 L 186.671875 135.015625 L 134.390625 135.015625 Z M 109.035156 100.410156 L 101.378906 149.871094 L 111.992188 122.371094 L 148.160156 113.425781 L 134.394531 100.410156 Z M 109.035156 100.410156 " fill-opacity="1" fill-rule="nonzero"/><path fill="#ff8d5d" d="M 0.484375 135 L 12.675781 89.457031 L 38.902344 89.457031 L 38.996094 113.414062 L 75.167969 122.359375 L 85.78125 149.859375 L 80.324219 155.917969 L 52.765625 134.988281 L 0.484375 134.988281 Z M 186.675781 135 L 174.480469 89.457031 L 148.257812 89.457031 L 148.160156 113.414062 L 111.992188 122.359375 L 101.378906 149.859375 L 106.832031 155.917969 L 134.394531 134.988281 L 186.671875 134.988281 Z M 111.839844 40.535156 L 75.320312 40.535156 L 72.835938 66.152344 L 85.78125 149.828125 L 101.378906 149.828125 L 114.332031 66.152344 Z M 111.839844 40.535156 " fill-opacity="1" fill-rule="nonzero"/><path fill="#661800" d="M 12.675781 3.238281 L 0.484375 50.957031 L 12.675781 89.460938 L 38.902344 89.460938 L 72.824219 66.1875 Z M 70.550781 110.347656 L 58.671875 110.347656 L 52.203125 116.667969 L 75.183594 122.351562 L 70.550781 110.339844 Z M 174.480469 3.238281 L 186.671875 50.957031 L 174.480469 89.460938 L 148.253906 89.460938 L 114.332031 66.1875 Z M 116.625 110.347656 L 128.519531 110.347656 L 134.988281 116.679688 L 111.980469 122.367188 L 116.625 110.339844 Z M 104.121094 165.828125 L 106.832031 155.933594 L 101.378906 149.878906 L 85.777344 149.878906 L 80.320312 155.933594 L 83.03125 165.824219 " fill-opacity="1" fill-rule="nonzero"/><path fill="#c0c4cd" d="M 83.019531 165.828125 L 104.113281 165.828125 L 104.113281 182.15625 L 83.019531 182.15625 Z M 83.019531 165.828125 " fill-opacity="1" fill-rule="nonzero"/><path fill="#e7ebf6" d="M 52.773438 164.109375 L 83.046875 182.148438 L 83.046875 165.816406 L 80.335938 155.925781 Z M 134.390625 164.109375 L 104.121094 182.148438 L 104.121094 165.816406 L 106.828125 155.925781 Z M 134.390625 164.109375 " fill-opacity="1" fill-rule="nonzero"/></svg>