<svg xmlns="http://www.w3.org/2000/svg" xmlns:xlink="http://www.w3.org/1999/xlink" width="500" zoomAndPan="magnify" viewBox="0 0 375 374.999991" height="500" preserveAspectRatio="xMidYMid meet" version="1.0"><defs><clipPath id="3689bbb9a9"><path d="M 25.25 4.15625 L 350 4.15625 L 350 187.15625 L 25.25 187.15625 Z M 25.25 4.15625 " clip-rule="nonzero"/></clipPath><clipPath id="e5d0021a4e"><path d="M 67.804688 135.605469 L 307.054688 135.605469 L 307.054688 374.855469 L 67.804688 374.855469 Z M 67.804688 135.605469 " clip-rule="nonzero"/></clipPath></defs><g clip-path="url(#3689bbb9a9)"><path fill="#c0c0c0" d="M 349.738281 67.640625 L 340.855469 75.9375 L 342.164062 81.617188 C 299.546875 128.855469 271.402344 151.199219 263.1875 139.292969 C 256.625 116.695312 259.914062 94.347656 270.234375 72.175781 L 279.003906 68.070312 L 280.695312 48.625 L 267.21875 62.742188 L 269.976562 72.203125 C 258.835938 90.898438 246.863281 107.460938 233.171875 119.5625 C 218.757812 132.300781 214.359375 134.085938 205.035156 114.046875 C 198.128906 99.199219 195.761719 79.308594 191.121094 61.9375 L 202.925781 48.15625 L 187.5 4.207031 L 172.066406 48.15625 L 183.871094 61.933594 C 179.230469 79.300781 176.863281 99.199219 169.953125 114.046875 C 160.632812 134.085938 156.238281 132.296875 141.816406 119.5625 C 128.128906 107.460938 116.15625 90.898438 105.015625 72.203125 L 107.773438 62.746094 L 94.292969 48.628906 L 95.988281 68.070312 L 104.761719 72.179688 C 115.085938 94.351562 118.367188 116.695312 111.808594 139.292969 C 103.589844 151.199219 75.453125 128.855469 32.824219 81.617188 L 34.132812 75.9375 L 25.25 67.640625 L 27 79.671875 L 32.269531 81.777344 L 92.988281 187.484375 L 74.34375 136.136719 C 74.71875 136.445312 75.101562 136.75 75.476562 137.050781 C 84.980469 144.664062 101.640625 156.992188 114.265625 149.652344 C 116.402344 148.40625 118.195312 146.699219 119.597656 144.667969 L 120.464844 143.40625 L 120.894531 141.929688 C 123.441406 133.160156 124.632812 124.445312 124.644531 115.828125 C 128.113281 119.652344 131.742188 123.28125 135.554688 126.648438 C 141.972656 132.320312 150.105469 139.796875 159.375 138.429688 C 169.402344 136.953125 174.714844 126.261719 178.535156 118.039062 C 182.777344 108.925781 185.320312 98.757812 187.5 88.796875 C 189.683594 98.757812 192.21875 108.925781 196.460938 118.039062 C 200.289062 126.261719 205.597656 136.953125 215.621094 138.429688 C 224.898438 139.796875 233.027344 132.320312 239.441406 126.648438 C 243.253906 123.28125 246.886719 119.652344 250.351562 115.828125 C 250.371094 124.449219 251.558594 133.160156 254.101562 141.929688 L 254.527344 143.40625 L 255.402344 144.667969 C 256.804688 146.699219 258.59375 148.40625 260.734375 149.652344 C 273.363281 156.996094 290.015625 144.664062 299.519531 137.050781 C 299.898438 136.75 300.277344 136.445312 300.652344 136.136719 L 284.292969 183.691406 L 342.726562 81.777344 L 347.992188 79.671875 Z M 349.738281 67.640625 " fill-opacity="1" fill-rule="evenodd"/></g><path fill="#c0c0c0" d="M 155.628906 106.871094 C 156.714844 111.835938 157.9375 116.863281 159.601562 121.660156 C 160.714844 120.203125 162.214844 117.777344 164.199219 113.695312 C 161.175781 102.539062 159.519531 89.863281 155.625 79.671875 C 151.421875 90.691406 149.828125 104.605469 146.292969 116.371094 C 147.855469 117.746094 149.917969 119.515625 151.882812 120.988281 C 153.433594 116.394531 154.59375 111.605469 155.628906 106.871094 Z M 155.628906 106.871094 " fill-opacity="1" fill-rule="evenodd"/><path fill="#c0c0c0" d="M 219.269531 106.871094 C 220.316406 111.625 221.480469 116.433594 223.035156 121.046875 C 224.992188 119.585938 227.050781 117.820312 228.628906 116.4375 C 225.082031 104.660156 223.488281 90.707031 219.273438 79.671875 C 215.398438 89.824219 213.742188 102.449219 210.738281 113.570312 C 212.710938 117.644531 214.214844 120.097656 215.332031 121.574219 C 216.976562 116.804688 218.191406 111.808594 219.269531 106.871094 Z M 219.269531 106.871094 " fill-opacity="1" fill-rule="evenodd"/><path fill="#c0c0c0" d="M 275.523438 135.375 C 276.683594 127.820312 278.652344 119.878906 278.847656 112.785156 C 274.390625 117.503906 270.480469 123.773438 266.390625 129.527344 C 266.769531 131.625 267.238281 133.714844 267.785156 135.796875 C 269.027344 134.179688 270.214844 132.515625 271.371094 130.855469 C 271.007812 132.894531 270.667969 134.964844 270.402344 137.039062 C 271.671875 136.878906 273.34375 136.394531 275.523438 135.375 Z M 275.523438 135.375 " fill-opacity="1" fill-rule="evenodd"/><path fill="#c0c0c0" d="M 108.601562 129.53125 C 104.511719 123.773438 100.601562 117.503906 96.144531 112.78125 C 96.335938 119.875 98.308594 127.816406 99.464844 135.371094 C 101.648438 136.390625 103.316406 136.875 104.589844 137.035156 C 104.320312 134.957031 103.980469 132.890625 103.617188 130.847656 C 104.773438 132.511719 105.960938 134.175781 107.207031 135.792969 C 107.753906 133.71875 108.226562 131.625 108.601562 129.53125 Z M 108.601562 129.53125 " fill-opacity="1" fill-rule="evenodd"/><g clip-path="url(#e5d0021a4e)"><path fill="#c0c0c0" d="M 187.488281 135.605469 C 220.539062 135.605469 250.460938 149.003906 272.117188 170.660156 C 293.78125 192.320312 307.175781 222.242188 307.175781 255.292969 C 307.175781 288.339844 293.78125 318.265625 272.117188 339.921875 C 250.460938 361.582031 220.539062 374.980469 187.488281 374.980469 C 154.4375 374.980469 124.519531 361.582031 102.855469 339.921875 C 81.199219 318.265625 67.804688 288.339844 67.804688 255.292969 C 67.804688 222.242188 81.199219 192.320312 102.855469 170.660156 C 124.519531 149.003906 154.4375 135.605469 187.488281 135.605469 Z M 262.71875 180.066406 C 243.46875 160.8125 216.867188 148.902344 187.488281 148.902344 C 158.113281 148.902344 131.511719 160.8125 112.261719 180.066406 C 93.007812 199.316406 81.101562 225.910156 81.101562 255.292969 C 81.101562 284.671875 93.007812 311.269531 112.261719 330.519531 C 131.511719 349.773438 158.113281 361.683594 187.488281 361.683594 C 216.867188 361.683594 243.46875 349.773438 262.71875 330.519531 C 281.972656 311.269531 293.878906 284.671875 293.878906 255.292969 C 293.878906 225.910156 281.972656 199.316406 262.71875 180.066406 " fill-opacity="1" fill-rule="nonzero"/></g></svg>